<svg width="24" height="24" viewBox="0 0 24 24" fill="none" xmlns="http://www.w3.org/2000/svg">
<rect x="4.38629" y="4.48975" width="15" height="15" stroke="black"/>
<path fill-rule="evenodd" clip-rule="evenodd" d="M20.3549 16.3966L2.24756 7.38002L2.6933 6.48486L20.8006 15.5014L20.3549 16.3966Z" fill="black"/>
<path fill-rule="evenodd" clip-rule="evenodd" d="M14.845 14.751C14.1197 15.49 13.1095 15.9483 11.9922 15.9483C9.78469 15.9483 7.99512 14.1588 7.99512 11.9512C7.99512 11.7509 8.00985 11.554 8.0383 11.3616L7.1064 10.8976C7.0335 11.2373 6.99512 11.5898 6.99512 11.9512C6.99512 14.711 9.2324 16.9483 11.9922 16.9483C13.5047 16.9483 14.8601 16.2764 15.7765 15.2149L14.845 14.751ZM8.31483 10.3822C8.92473 8.95458 10.3416 7.9541 11.9922 7.9541C14.1998 7.9541 15.9893 9.74367 15.9893 11.9512C15.9893 12.6753 15.7968 13.3544 15.4601 13.9402L16.3567 14.3867C16.7597 13.6661 16.9893 12.8355 16.9893 11.9512C16.9893 9.19139 14.7521 6.9541 11.9922 6.9541C9.94954 6.9541 8.19312 8.17973 7.41823 9.93573L8.31483 10.3822Z" fill="black"/>
</svg>
