<svg width="24" height="24" viewBox="0 0 24 24" fill="none" xmlns="http://www.w3.org/2000/svg">
<path d="M12.9459 0.480185C12.902 0.48142 12.8585 0.488675 12.8165 0.501748L5.13655 2.90175C5.03892 2.93233 4.95362 2.99329 4.89307 3.07576C4.83253 3.15823 4.79992 3.25788 4.79999 3.36018V21.1202C4.79995 21.2273 4.83573 21.3314 4.90164 21.4158C4.96756 21.5002 5.05981 21.5602 5.16374 21.5861L12.8437 23.5061C12.9145 23.5238 12.9884 23.5251 13.0597 23.5099C13.1311 23.4947 13.198 23.4635 13.2555 23.4186C13.313 23.3737 13.3595 23.3163 13.3914 23.2507C13.4234 23.1851 13.44 23.1131 13.44 23.0402V0.960185C13.44 0.895952 13.4271 0.832367 13.4021 0.773198C13.3771 0.714029 13.3405 0.660478 13.2944 0.615719C13.2484 0.570959 13.1938 0.535901 13.1339 0.51262C13.0741 0.489339 13.0101 0.47831 12.9459 0.480185ZM12.48 1.61362V22.4252L5.75999 20.7452V3.71269L12.48 1.61362ZM14.4 2.40018V3.36018H18.24V12.9602H19.2V2.88019C19.2 2.75289 19.1494 2.6308 19.0594 2.54079C18.9694 2.45077 18.8473 2.4002 18.72 2.40018H14.4ZM11.52 11.5202C11.3927 11.5202 11.2706 11.596 11.1806 11.7311C11.0906 11.8661 11.04 12.0492 11.04 12.2402C11.04 12.4311 11.0906 12.6143 11.1806 12.7493C11.2706 12.8843 11.3927 12.9602 11.52 12.9602C11.6473 12.9602 11.7694 12.8843 11.8594 12.7493C11.9494 12.6143 12 12.4311 12 12.2402C12 12.0492 11.9494 11.8661 11.8594 11.7311C11.7694 11.596 11.6473 11.5202 11.52 11.5202ZM14.88 13.9202C14.7527 13.9202 14.6306 13.9708 14.5406 14.0608C14.4506 14.1508 14.4 14.2729 14.4 14.4002V21.1202C14.4 21.2475 14.4506 21.3696 14.5406 21.4596C14.6306 21.5496 14.7527 21.6002 14.88 21.6002H22.56C22.6873 21.6002 22.8094 21.5496 22.8994 21.4596C22.9894 21.3696 23.04 21.2475 23.04 21.1202V14.4002C23.04 14.2729 22.9894 14.1508 22.8994 14.0608C22.8094 13.9708 22.6873 13.9202 22.56 13.9202H14.88ZM15.36 14.8802H22.08V20.6402H15.36V14.8802ZM17.76 15.8402C17.6964 15.8393 17.6332 15.851 17.5742 15.8748C17.5152 15.8985 17.4615 15.9337 17.4162 15.9783C17.3709 16.023 17.3349 16.0762 17.3103 16.1349C17.2858 16.1936 17.2731 16.2566 17.2731 16.3202C17.2731 16.3838 17.2858 16.4468 17.3103 16.5055C17.3349 16.5641 17.3709 16.6174 17.4162 16.662C17.4615 16.7067 17.5152 16.7419 17.5742 16.7656C17.6332 16.7893 17.6964 16.8011 17.76 16.8002H19.68C19.7436 16.8011 19.8067 16.7893 19.8658 16.7656C19.9248 16.7419 19.9785 16.7067 20.0238 16.662C20.0691 16.6174 20.1051 16.5641 20.1296 16.5055C20.1542 16.4468 20.1668 16.3838 20.1668 16.3202C20.1668 16.2566 20.1542 16.1936 20.1296 16.1349C20.1051 16.0762 20.0691 16.023 20.0238 15.9783C19.9785 15.9337 19.9248 15.8985 19.8658 15.8748C19.8067 15.851 19.7436 15.8393 19.68 15.8402H17.76Z" fill="black"/>
</svg>
