<svg width="25" height="25" viewBox="0 0 25 25" fill="none" xmlns="http://www.w3.org/2000/svg">
<path d="M8.49846 3.18359C5.41126 3.18359 2.90002 5.69716 2.90002 8.78516V16.7852C2.90002 19.8724 5.41359 22.3836 8.50159 22.3836H16.5016C19.5888 22.3836 22.1 19.87 22.1 16.782V8.78203C22.1 5.69483 19.5865 3.18359 16.4985 3.18359H8.49846ZM18.1 6.38359C18.5416 6.38359 18.9 6.74199 18.9 7.18359C18.9 7.62519 18.5416 7.98359 18.1 7.98359C17.6584 7.98359 17.3 7.62519 17.3 7.18359C17.3 6.74199 17.6584 6.38359 18.1 6.38359ZM12.5 7.98359C15.1472 7.98359 17.3 10.1364 17.3 12.7836C17.3 15.4308 15.1472 17.5836 12.5 17.5836C9.85282 17.5836 7.70002 15.4308 7.70002 12.7836C7.70002 10.1364 9.85282 7.98359 12.5 7.98359ZM12.5 9.58359C11.6513 9.58359 10.8374 9.92074 10.2373 10.5209C9.63717 11.121 9.30002 11.9349 9.30002 12.7836C9.30002 13.6323 9.63717 14.4462 10.2373 15.0463C10.8374 15.6465 11.6513 15.9836 12.5 15.9836C13.3487 15.9836 14.1626 15.6465 14.7628 15.0463C15.3629 14.4462 15.7 13.6323 15.7 12.7836C15.7 11.9349 15.3629 11.121 14.7628 10.5209C14.1626 9.92074 13.3487 9.58359 12.5 9.58359Z" fill="#333333"/>
</svg>
