<svg width="25" height="24" viewBox="0 0 25 24" fill="none" xmlns="http://www.w3.org/2000/svg">
<path d="M3.7562 9.38144C4.30918 7.45296 5.45849 5.74904 7.0394 4.5139C8.62031 3.27876 10.5517 2.5758 12.5566 2.50579C14.5616 2.43577 16.5373 3.00229 18.2005 4.12414C19.8637 5.246 21.1291 6.8656 21.8153 8.75081" stroke="#14142B" stroke-linejoin="round"/>
<path d="M21.6409 15.6931C20.9263 17.3868 19.7356 18.8368 18.2132 19.8673C16.6908 20.8977 14.9022 21.4643 13.0642 21.4984C11.2262 21.5324 9.41779 21.0325 7.85828 20.0592C6.29878 19.0858 5.05517 17.681 4.27826 16.0149" stroke="#14142B" stroke-linejoin="round"/>
<path d="M8.60114 15.0242L4.14699 15.3157L2.49292 19.5527" stroke="#14142B"/>
<path d="M17.0747 9.36035L21.7004 9.34898L23.2797 5.13764" stroke="#14142B"/>
</svg>
