<svg width="24" height="24" viewBox="0 0 24 24" fill="none" xmlns="http://www.w3.org/2000/svg">
<path d="M13.5654 6.87109H18.0525L22.4874 11.2538V17.9844H20.4914" stroke="black"/>
<path d="M8.55664 18.0889H15.2872" stroke="black"/>
<circle cx="17.9482" cy="17.9843" r="2.4218" stroke="black"/>
<path fill-rule="evenodd" clip-rule="evenodd" d="M6.05223 19.9061C7.11362 19.9061 7.97404 19.0457 7.97404 17.9843C7.97404 16.9229 7.11362 16.0625 6.05223 16.0625C4.99085 16.0625 4.13043 16.9229 4.13043 17.9843C4.13043 19.0457 4.99085 19.9061 6.05223 19.9061ZM6.05223 20.9061C7.6659 20.9061 8.97404 19.598 8.97404 17.9843C8.97404 16.3706 7.6659 15.0625 6.05223 15.0625C4.43857 15.0625 3.13043 16.3706 3.13043 17.9843C3.13043 19.598 4.43857 20.9061 6.05223 20.9061Z" fill="black"/>
<path d="M1.49817 18.4932L1.49818 3.50098L13.501 3.52347V17.9844H8.4523" stroke="black"/>
<path d="M1.19995 17.9844H3.70435" stroke="black"/>
</svg>
