<svg width="24" height="24" viewBox="0 0 24 24" fill="none" xmlns="http://www.w3.org/2000/svg">
<path d="M2.7 4.7998C2.0408 4.7998 1.5 5.3406 1.5 5.9998V10.1998H1.8C2.79767 10.1998 3.6 11.0021 3.6 11.9998C3.6 12.9975 2.79767 13.7998 1.8 13.7998H1.5V17.9998C1.5 18.659 2.0408 19.1998 2.7 19.1998H21.3C21.9592 19.1998 22.5 18.659 22.5 17.9998V13.7998H22.2C21.2023 13.7998 20.4 12.9975 20.4 11.9998C20.4 11.0021 21.2023 10.1998 22.2 10.1998H22.5V5.9998C22.5 5.3406 21.9592 4.7998 21.3 4.7998H2.7ZM2.7 5.3998H7.2C7.2 5.47937 7.23161 5.55568 7.28787 5.61194C7.34413 5.6682 7.42044 5.6998 7.5 5.6998C7.57957 5.6998 7.65587 5.6682 7.71213 5.61194C7.76839 5.55568 7.8 5.47937 7.8 5.3998H21.3C21.635 5.3998 21.9 5.6648 21.9 5.9998V9.66074C20.7254 9.81521 19.8 10.7842 19.8 11.9998C19.8 13.2154 20.7254 14.1844 21.9 14.3389V17.9998C21.9 18.3348 21.635 18.5998 21.3 18.5998H7.8C7.8 18.5202 7.76839 18.4439 7.71213 18.3877C7.65587 18.3314 7.57957 18.2998 7.5 18.2998C7.42044 18.2998 7.34413 18.3314 7.28787 18.3877C7.23161 18.4439 7.2 18.5202 7.2 18.5998H2.7C2.365 18.5998 2.1 18.3348 2.1 17.9998V14.3389C3.27462 14.1844 4.2 13.2154 4.2 11.9998C4.2 10.7842 3.27462 9.81521 2.1 9.66074V5.9998C2.1 5.6648 2.365 5.3998 2.7 5.3998ZM7.5 6.2998C7.42044 6.2998 7.34413 6.33141 7.28787 6.38767C7.23161 6.44393 7.2 6.52024 7.2 6.5998C7.2 6.67937 7.23161 6.75568 7.28787 6.81194C7.34413 6.8682 7.42044 6.8998 7.5 6.8998C7.57957 6.8998 7.65587 6.8682 7.71213 6.81194C7.76839 6.75568 7.8 6.67937 7.8 6.5998C7.8 6.52024 7.76839 6.44393 7.71213 6.38767C7.65587 6.33141 7.57957 6.2998 7.5 6.2998ZM7.5 7.4998C7.42044 7.4998 7.34413 7.53141 7.28787 7.58767C7.23161 7.64393 7.2 7.72024 7.2 7.7998C7.2 7.87937 7.23161 7.95568 7.28787 8.01194C7.34413 8.0682 7.42044 8.0998 7.5 8.0998C7.57957 8.0998 7.65587 8.0682 7.71213 8.01194C7.76839 7.95568 7.8 7.87937 7.8 7.7998C7.8 7.72024 7.76839 7.64393 7.71213 7.58767C7.65587 7.53141 7.57957 7.4998 7.5 7.4998ZM11.7293 8.29316C10.8356 8.29316 10.2 9.00841 10.2 10.0164C10.2 11.0295 10.8356 11.7443 11.7293 11.7443C12.623 11.7443 13.2539 11.0292 13.2539 10.0164C13.2539 9.00331 12.623 8.29316 11.7293 8.29316ZM15.985 8.41738L13.4725 11.848L10.7361 15.5822H11.6496L14.1076 12.2207L16.8885 8.41738H15.985ZM7.5 8.6998C7.42044 8.6998 7.34413 8.73141 7.28787 8.78767C7.23161 8.84393 7.2 8.92024 7.2 8.9998C7.2 9.07937 7.23161 9.15568 7.28787 9.21194C7.34413 9.2682 7.42044 9.2998 7.5 9.2998C7.57957 9.2998 7.65587 9.2682 7.71213 9.21194C7.76839 9.15568 7.8 9.07937 7.8 8.9998C7.8 8.92024 7.76839 8.84393 7.71213 8.78767C7.65587 8.73141 7.57957 8.6998 7.5 8.6998ZM11.7293 8.92891C12.1763 8.92891 12.4594 9.34591 12.4594 10.0164C12.4594 10.6719 12.1661 11.1086 11.7293 11.1086C11.2874 11.1086 10.9945 10.6767 10.9945 10.0164C10.9945 9.35611 11.2823 8.92891 11.7293 8.92891ZM7.5 9.89981C7.42044 9.89981 7.34413 9.93141 7.28787 9.98767C7.23161 10.0439 7.2 10.1202 7.2 10.1998C7.2 10.2794 7.23161 10.3557 7.28787 10.4119C7.34413 10.4682 7.42044 10.4998 7.5 10.4998C7.57957 10.4998 7.65587 10.4682 7.71213 10.4119C7.76839 10.3557 7.8 10.2794 7.8 10.1998C7.8 10.1202 7.76839 10.0439 7.71213 9.98767C7.65587 9.93141 7.57957 9.89981 7.5 9.89981ZM7.5 11.0998C7.42044 11.0998 7.34413 11.1314 7.28787 11.1877C7.23161 11.2439 7.2 11.3202 7.2 11.3998C7.2 11.4794 7.23161 11.5557 7.28787 11.6119C7.34413 11.6682 7.42044 11.6998 7.5 11.6998C7.57957 11.6998 7.65587 11.6682 7.71213 11.6119C7.76839 11.5557 7.8 11.4794 7.8 11.3998C7.8 11.3202 7.76839 11.2439 7.71213 11.1877C7.65587 11.1314 7.57957 11.0998 7.5 11.0998ZM15.876 12.2553C14.9823 12.2553 14.3461 12.9705 14.3461 13.9785C14.3461 14.9916 14.9823 15.7064 15.876 15.7064C16.7697 15.7064 17.4 14.9913 17.4 13.9785C17.4 12.9654 16.7697 12.2553 15.876 12.2553ZM7.5 12.2998C7.42044 12.2998 7.34413 12.3314 7.28787 12.3877C7.23161 12.4439 7.2 12.5202 7.2 12.5998C7.2 12.6794 7.23161 12.7557 7.28787 12.8119C7.34413 12.8682 7.42044 12.8998 7.5 12.8998C7.57957 12.8998 7.65587 12.8682 7.71213 12.8119C7.76839 12.7557 7.8 12.6794 7.8 12.5998C7.8 12.5202 7.76839 12.4439 7.71213 12.3877C7.65587 12.3314 7.57957 12.2998 7.5 12.2998ZM15.876 12.891C16.323 12.891 16.6055 13.308 16.6055 13.9785C16.6055 14.634 16.3128 15.0707 15.876 15.0707C15.4341 15.0707 15.1406 14.6388 15.1406 13.9785C15.1406 13.3182 15.429 12.891 15.876 12.891ZM7.5 13.4998C7.42044 13.4998 7.34413 13.5314 7.28787 13.5877C7.23161 13.6439 7.2 13.7202 7.2 13.7998C7.2 13.8794 7.23161 13.9557 7.28787 14.0119C7.34413 14.0682 7.42044 14.0998 7.5 14.0998C7.57957 14.0998 7.65587 14.0682 7.71213 14.0119C7.76839 13.9557 7.8 13.8794 7.8 13.7998C7.8 13.7202 7.76839 13.6439 7.71213 13.5877C7.65587 13.5314 7.57957 13.4998 7.5 13.4998ZM7.5 14.6998C7.42044 14.6998 7.34413 14.7314 7.28787 14.7877C7.23161 14.8439 7.2 14.9202 7.2 14.9998C7.2 15.0794 7.23161 15.1557 7.28787 15.2119C7.34413 15.2682 7.42044 15.2998 7.5 15.2998C7.57957 15.2998 7.65587 15.2682 7.71213 15.2119C7.76839 15.1557 7.8 15.0794 7.8 14.9998C7.8 14.9202 7.76839 14.8439 7.71213 14.7877C7.65587 14.7314 7.57957 14.6998 7.5 14.6998ZM7.5 15.8998C7.42044 15.8998 7.34413 15.9314 7.28787 15.9877C7.23161 16.0439 7.2 16.1202 7.2 16.1998C7.2 16.2794 7.23161 16.3557 7.28787 16.4119C7.34413 16.4682 7.42044 16.4998 7.5 16.4998C7.57957 16.4998 7.65587 16.4682 7.71213 16.4119C7.76839 16.3557 7.8 16.2794 7.8 16.1998C7.8 16.1202 7.76839 16.0439 7.71213 15.9877C7.65587 15.9314 7.57957 15.8998 7.5 15.8998ZM7.5 17.0998C7.42044 17.0998 7.34413 17.1314 7.28787 17.1877C7.23161 17.2439 7.2 17.3202 7.2 17.3998C7.2 17.4794 7.23161 17.5557 7.28787 17.6119C7.34413 17.6682 7.42044 17.6998 7.5 17.6998C7.57957 17.6998 7.65587 17.6682 7.71213 17.6119C7.76839 17.5557 7.8 17.4794 7.8 17.3998C7.8 17.3202 7.76839 17.2439 7.71213 17.1877C7.65587 17.1314 7.57957 17.0998 7.5 17.0998Z" fill="black"/>
</svg>
