<svg width="25" height="25" viewBox="0 0 25 25" fill="none" xmlns="http://www.w3.org/2000/svg">
<path d="M12.5 3.98389C9.15118 3.98389 4.80466 4.82295 4.80466 4.82295L4.79373 4.83545C3.26851 5.07938 2.09998 6.38999 2.09998 7.98389V12.7839V12.7854V17.5839V17.5855C2.10146 18.3467 2.37427 19.0824 2.86941 19.6606C3.36456 20.2388 4.0496 20.6216 4.80154 20.7401L4.80466 20.7448C4.80466 20.7448 9.15118 21.5855 12.5 21.5855C15.8488 21.5855 20.1953 20.7448 20.1953 20.7448L20.1968 20.7433C20.9496 20.6249 21.6354 20.2419 22.131 19.663C22.6265 19.0841 22.8992 18.3474 22.9 17.5855V17.5839V12.7854V12.7839V7.98389C22.8989 7.22239 22.6262 6.48625 22.131 5.90773C21.6359 5.32922 20.9506 4.94625 20.1984 4.82764L20.1953 4.82295C20.1953 4.82295 15.8488 3.98389 12.5 3.98389ZM10.1 9.10264L16.5 12.7839L10.1 16.4651V9.10264Z" fill="#333333"/>
</svg>
